# xmcd
#
# Track frame offsets:
#	150
#	22228
#	50499
#	83468
#	107622
#	142863
#	161259
#	186681
#
# Disc length: 2854 seconds
#
# Revision: 10
# Processed by: cddbd v1.5.2PL0 Copyright (c) Steve Scherf et al.
# Submitted via: Jack! The Knife 20 Magnifico
#
DISCID=610b2408
DTITLE=Candlemass - Death Magic Doom
DYEAR=2009
DGENRE=Metal
TTITLE0=If I Ever Die
TTITLE1=Hammer Of Doom
TTITLE2=The Bleeding Baroness
TTITLE3=Demon Of The Deep
TTITLE4=House Of 1,000 Voices
TTITLE5=Dead Angel
TTITLE6=Clouds Of Dementia
TTITLE7=My Funeral Dreams
EXTD=
EXTT0=Leif Edling
EXTT1=Leif Edling
EXTT2=Leif Edling
EXTT3=Leif Edling
EXTT4=Leif Edling
EXTT5=Leif Edling
EXTT6=Leif Edling
EXTT7=Leif Edling
PLAYORDER=
